<svg width="15" height="14" viewBox="0 0 15 14" fill="none" xmlns="http://www.w3.org/2000/svg">
<path d="M7.52002 14C11.386 14 14.52 10.866 14.52 7C14.52 3.13401 11.386 0 7.52002 0C3.65403 0 0.52002 3.13401 0.52002 7C0.52002 10.866 3.65403 14 7.52002 14Z" fill="#F0F0F0"/>
<path d="M7.21582 7.00041H14.5201C14.5201 6.36861 14.4359 5.75655 14.279 5.17432H7.21582V7.00041Z" fill="#D80027"/>
<path d="M7.21582 3.34807H13.4927C13.0642 2.64884 12.5163 2.03079 11.8775 1.52197H7.21582V3.34807Z" fill="#D80027"/>
<path d="M7.51999 14.0003C9.16742 14.0003 10.6816 13.4308 11.8774 12.4785H3.1626C4.35834 13.4308 5.87256 14.0003 7.51999 14.0003Z" fill="#D80027"/>
<path d="M1.5475 10.6523H13.4927C13.8367 10.0909 14.1035 9.47734 14.279 8.82617H0.76123C0.936695 9.47734 1.20349 10.0909 1.5475 10.6523Z" fill="#D80027"/>
<path d="M3.76255 1.09315H4.40045L3.80709 1.52422L4.03375 2.22173L3.44041 1.79066L2.84708 2.22173L3.04286 1.61916C2.52043 2.05434 2.06254 2.56419 1.68519 3.13228H1.88959L1.51189 3.40668C1.45304 3.50484 1.39661 3.60456 1.34252 3.70576L1.52288 4.26087L1.18639 4.01639C1.10274 4.1936 1.02623 4.37481 0.957465 4.55979L1.15617 5.17141H1.88959L1.29623 5.60249L1.52288 6.3L0.929547 5.86893L0.574133 6.12716C0.538559 6.41312 0.52002 6.70439 0.52002 7H7.52002C7.52002 3.13403 7.52002 2.67827 7.52002 0C6.13719 0 4.84813 0.401133 3.76255 1.09315ZM4.03375 6.3L3.44041 5.86893L2.84708 6.3L3.07373 5.60249L2.48038 5.17141H3.21379L3.44041 4.4739L3.66704 5.17141H4.40045L3.80709 5.60249L4.03375 6.3ZM3.80709 3.56336L4.03375 4.26087L3.44041 3.82979L2.84708 4.26087L3.07373 3.56336L2.48038 3.13228H3.21379L3.44041 2.43477L3.66704 3.13228H4.40045L3.80709 3.56336ZM6.54461 6.3L5.95128 5.86893L5.35795 6.3L5.5846 5.60249L4.99124 5.17141H5.72466L5.95128 4.4739L6.17791 5.17141H6.91132L6.31796 5.60249L6.54461 6.3ZM6.31796 3.56336L6.54461 4.26087L5.95128 3.82979L5.35795 4.26087L5.5846 3.56336L4.99124 3.13228H5.72466L5.95128 2.43477L6.17791 3.13228H6.91132L6.31796 3.56336ZM6.31796 1.52422L6.54461 2.22173L5.95128 1.79066L5.35795 2.22173L5.5846 1.52422L4.99124 1.09315H5.72466L5.95128 0.395637L6.17791 1.09315H6.91132L6.31796 1.52422Z" fill="#0052B4"/>
</svg>
